<svg width="201" height="78" viewBox="0 0 201 78" fill="none" xmlns="http://www.w3.org/2000/svg">
<g clip-path="url(#clip0_1615_504)">
<path d="M38.7946 72.6633L4.39944 38.333V26.0212L38.7946 60.3516V21.8741H35.3473V34.8338L0.952148 0.477539V5.31153L35.3473 39.6678V52.0703L0.952148 17.7399V56.2045H4.39944V43.2447L38.7946 77.5233V72.6633Z" fill="#393939"/>
</g>
<path d="M81.4685 25.7056V52.1953H77.6842V40.3885H62.4716V52.1953H58.6873V25.7056H62.4716V37.0962H77.6842V25.7056H81.4685ZM101.65 52.4981C98.9762 52.4981 96.5669 51.9178 94.4224 50.7573C92.278 49.5716 90.5877 47.9443 89.3516 45.8756C88.1406 43.8069 87.5351 41.4985 87.5351 38.9504C87.5351 36.4024 88.1406 34.094 89.3516 32.0253C90.5877 29.9566 92.278 28.3419 94.4224 27.1814C96.5669 25.9957 98.9762 25.4028 101.65 25.4028C104.299 25.4028 106.696 25.9957 108.84 27.1814C110.985 28.3419 112.663 29.9566 113.873 32.0253C115.084 34.0688 115.69 36.3772 115.69 38.9504C115.69 41.5237 115.084 43.8447 113.873 45.9135C112.663 47.957 110.985 49.5716 108.84 50.7573C106.696 51.9178 104.299 52.4981 101.65 52.4981ZM101.65 49.1301C103.593 49.1301 105.334 48.6886 106.873 47.8056C108.437 46.9226 109.66 45.7116 110.543 44.1727C111.452 42.6086 111.906 40.8678 111.906 38.9504C111.906 37.0331 111.452 35.305 110.543 33.766C109.66 32.2019 108.437 30.9783 106.873 30.0953C105.334 29.2123 103.593 28.7708 101.65 28.7708C99.7078 28.7708 97.9418 29.2123 96.3524 30.0953C94.7883 30.9783 93.5521 32.2019 92.6438 33.766C91.7609 35.305 91.3194 37.0331 91.3194 38.9504C91.3194 40.8678 91.7609 42.6086 92.6438 44.1727C93.5521 45.7116 94.7883 46.9226 96.3524 47.8056C97.9418 48.6886 99.7078 49.1301 101.65 49.1301ZM128.372 25.4028C130.895 25.4028 133.165 25.9957 135.184 27.1814C137.202 28.3419 138.791 29.9566 139.952 32.0253C141.112 34.0688 141.692 36.3772 141.692 38.9504C141.692 41.5237 141.112 43.8447 139.952 45.9135C138.791 47.957 137.202 49.5716 135.184 50.7573C133.165 51.9178 130.895 52.4981 128.372 52.4981C126.202 52.4981 124.234 52.1449 122.468 51.4385C120.702 50.7321 119.227 49.6977 118.041 48.3354L120.425 45.9513C122.418 48.0453 125.004 49.0922 128.183 49.0922C129.873 49.0922 131.412 48.7264 132.799 47.9948C134.187 47.2379 135.322 46.191 136.205 44.8539C137.088 43.5168 137.618 41.9905 137.795 40.2749H124.966V37.1719H137.757C137.505 35.532 136.937 34.0814 136.054 32.82C135.171 31.5586 134.048 30.5746 132.686 29.8683C131.324 29.1619 129.822 28.8087 128.183 28.8087C125.029 28.8087 122.443 29.8556 120.425 31.9496L118.041 29.5655C119.227 28.2032 120.702 27.1688 122.468 26.4624C124.26 25.756 126.227 25.4028 128.372 25.4028ZM157.058 40.5398H151.533V52.1953H147.824V25.7056H151.533V37.2097H157.133L165.459 25.7056H169.508L160.047 38.5342L169.962 52.1953H165.648L157.058 40.5398ZM185.612 52.4981C182.963 52.4981 180.566 51.9178 178.421 50.7573C176.302 49.5716 174.637 47.957 173.426 45.9135C172.215 43.8447 171.61 41.5237 171.61 38.9504C171.61 36.3772 172.215 34.0688 173.426 32.0253C174.637 29.9566 176.315 28.3419 178.459 27.1814C180.604 25.9957 183 25.4028 185.649 25.4028C187.718 25.4028 189.61 25.756 191.326 26.4624C193.041 27.1436 194.505 28.1653 195.715 29.5277L193.256 31.9117C191.263 29.8178 188.778 28.7708 185.801 28.7708C183.833 28.7708 182.054 29.2123 180.465 30.0953C178.876 30.9783 177.627 32.2019 176.719 33.766C175.836 35.305 175.394 37.0331 175.394 38.9504C175.394 40.8678 175.836 42.6086 176.719 44.1727C177.627 45.7116 178.876 46.9226 180.465 47.8056C182.054 48.6886 183.833 49.1301 185.801 49.1301C188.752 49.1301 191.237 48.0705 193.256 45.9513L195.715 48.3354C194.505 49.6977 193.029 50.7321 191.288 51.4385C189.572 52.1449 187.68 52.4981 185.612 52.4981Z" fill="#393939"/>
<defs>
<clipPath id="clip0_1615_504">
<rect width="37.8425" height="77.0457" fill="white" transform="translate(0.952148 0.477539)"/>
</clipPath>
</defs>
</svg>
