<svg width="17" height="16" viewBox="0 0 17 16" fill="none" xmlns="http://www.w3.org/2000/svg">
<path d="M7.57944 9.37484C6.05227 7.84766 5.70744 6.32049 5.62965 5.70863C5.60791 5.53945 5.66613 5.36978 5.78716 5.24959L7.02303 4.01428C7.20482 3.8326 7.23708 3.54945 7.10082 3.33153L5.1331 0.276077C4.98234 0.0347661 4.6728 -0.0523254 4.41834 0.0749733L1.25944 1.5627C1.05366 1.66402 0.932629 1.88266 0.955993 2.11084C1.12151 3.68325 1.80703 7.54863 5.60565 11.3475C9.40427 15.1464 13.2691 15.8317 14.8423 15.9972C15.0705 16.0205 15.2891 15.8995 15.3905 15.6937L16.8782 12.5348C17.005 12.2809 16.9185 11.9722 16.6782 11.8212L13.6227 9.85401C13.4049 9.7176 13.1218 9.74963 12.94 9.93125L11.7047 11.1671C11.5845 11.2881 11.4148 11.3464 11.2456 11.3246C10.6338 11.2468 9.10661 10.902 7.57944 9.37484Z" fill="#CDA177"/>
<path d="M13.6437 8.55189C13.339 8.55189 13.092 8.30488 13.092 8.00017C13.0894 5.71592 11.2383 3.86482 8.95407 3.86224C8.64936 3.86224 8.40234 3.61522 8.40234 3.31051C8.40234 3.0058 8.64936 2.75879 8.95407 2.75879C11.8475 2.76198 14.1923 5.10676 14.1954 8.00017C14.1954 8.30488 13.9484 8.55189 13.6437 8.55189Z" fill="#CDA177"/>
<path d="M16.4023 8.55172C16.0976 8.55172 15.8506 8.30471 15.8506 8C15.8464 4.1929 12.7612 1.10771 8.95407 1.10345C8.64936 1.10345 8.40234 0.856433 8.40234 0.551724C8.40234 0.247015 8.64936 0 8.95407 0C13.3703 0.00486507 16.9492 3.58374 16.9541 8C16.9541 8.14633 16.8959 8.28666 16.7925 8.39013C16.689 8.4936 16.5487 8.55172 16.4023 8.55172Z" fill="#CDA177"/>
</svg>
