<svg width="64" height="65" viewBox="0 0 64 65" fill="none" xmlns="http://www.w3.org/2000/svg">
<path d="M51.2559 13.2204C51.2214 13.0551 51.132 12.9063 51.0024 12.798L37.2274 1.29927C37.0982 1.19141 36.9365 1.13014 36.7683 1.12531C36.6 1.12048 36.4351 1.17237 36.2999 1.27264L24.6968 9.88039L13.2873 14.7198C13.1696 14.7697 13.0666 14.8489 12.9881 14.9498C12.9096 15.0507 12.8582 15.17 12.8388 15.2964L8.69864 42.2421C8.68254 42.3469 8.68884 42.454 8.71714 42.5561L12.8193 57.3757C12.8472 57.4768 12.8961 57.5709 12.9628 57.652C13.0294 57.7331 13.1123 57.7993 13.2061 57.8463L25.0873 63.7963C25.2162 63.861 25.3612 63.887 25.5046 63.8713L45.9873 61.6318C46.1015 61.6193 46.2113 61.5808 46.3082 61.5191C46.4052 61.4575 46.4866 61.3744 46.5464 61.2763L53.0823 50.5404C53.138 50.449 53.1734 50.3467 53.1861 50.2404L55.3041 32.78C55.314 32.6987 55.3104 32.6164 55.2938 32.5363L51.2559 13.2204ZM53.4926 31.2515L44.9129 26.5579L50.2351 15.6681L53.4926 31.2515ZM37.4934 3.47502L49.5888 13.5721L43.8714 25.2085L37.4704 13.1419L37.4934 3.47502ZM51.2498 49.0774L28.9521 43.4731L23.4463 36.4606L43.4655 27.859L51.2498 49.0774ZM36.4924 14.5346L42.8229 26.5021L23.0623 34.9925L23.5383 25.4131L36.4924 14.5346ZM35.9936 3.36789L35.9723 12.377L26.8098 10.1811L35.9936 3.36789ZM25.1373 11.323L35.0998 13.7105L22.8623 24.0048L14.8748 15.676L25.1373 11.323ZM14.0898 17.0304L22.0414 25.325L21.527 35.675L10.398 41.0594L14.0898 17.0304ZM10.3296 42.7588L22.0373 37.0944L27.7606 44.3841L27.3493 54.8264L14.0936 56.3569L10.3296 42.7588ZM25.5613 62.3554L16.1284 57.632L28.0049 56.2607L42.168 60.5403L25.5613 62.3554ZM45.567 60L28.8454 54.9477L29.2336 45.0905L51.2719 50.6297L45.567 60ZM52.0724 46.9658L45.2886 28.4729L53.7539 33.1038L52.0724 46.9658Z" fill="#393939"/>
<path d="M15.3917 20.7376C15.1955 20.7051 14.9944 20.7519 14.8327 20.8676C14.671 20.9833 14.5618 21.1585 14.5292 21.3546L14.4542 21.8046C14.4217 22.0008 14.4684 22.2019 14.5841 22.3636C14.6997 22.5253 14.8749 22.6345 15.0711 22.6671C15.112 22.6739 15.1534 22.6774 15.1949 22.6774C15.3724 22.6772 15.5441 22.614 15.6794 22.4992C15.8147 22.3843 15.9049 22.2252 15.934 22.0501L16.009 21.6001C16.0415 21.4039 15.9947 21.2028 15.8789 21.0411C15.7632 20.8793 15.5879 20.7702 15.3917 20.7376Z" fill="#393939"/>
<path d="M14.9203 23.5745C14.7241 23.542 14.523 23.5888 14.3612 23.7045C14.1995 23.8202 14.0903 23.9955 14.0578 24.1917L12.669 32.5577C12.6365 32.7539 12.6832 32.9549 12.7989 33.1167C12.9147 33.2784 13.0899 33.3876 13.286 33.4202C13.3269 33.427 13.3682 33.4304 13.4097 33.4304C13.5871 33.4302 13.7588 33.3671 13.8941 33.2522C14.0294 33.1374 14.1196 32.9783 14.1487 32.8032L15.5375 24.4377C15.5537 24.3405 15.5506 24.241 15.5283 24.145C15.5061 24.049 15.4651 23.9584 15.4078 23.8782C15.3504 23.798 15.2779 23.73 15.1942 23.6779C15.1106 23.6258 15.0175 23.5907 14.9203 23.5745Z" fill="#393939"/>
</svg>
