<svg width="64" height="65" viewBox="0 0 64 65" fill="none" xmlns="http://www.w3.org/2000/svg">
<path d="M29 45.124C28.8011 45.124 28.6103 45.203 28.4697 45.3437C28.329 45.4843 28.25 45.6751 28.25 45.874V46.33C28.25 46.5289 28.329 46.7197 28.4697 46.8603C28.6103 47.001 28.8011 47.08 29 47.08C29.1989 47.08 29.3897 47.001 29.5303 46.8603C29.671 46.7197 29.75 46.5289 29.75 46.33V45.874C29.75 45.6751 29.671 45.4843 29.5303 45.3437C29.3897 45.203 29.1989 45.124 29 45.124Z" fill="#393939"/>
<path d="M29 48.001C28.8011 48.001 28.6103 48.08 28.4697 48.2206C28.329 48.3613 28.25 48.5521 28.25 48.751V57.2316C28.25 57.4305 28.329 57.6213 28.4697 57.7619C28.6103 57.9026 28.8011 57.9816 29 57.9816C29.1989 57.9816 29.3897 57.9026 29.5303 57.7619C29.671 57.6213 29.75 57.4305 29.75 57.2316V48.751C29.75 48.5521 29.671 48.3613 29.5303 48.2206C29.3897 48.08 29.1989 48.001 29 48.001Z" fill="#393939"/>
<path d="M42.9357 12.5603C42.3957 11.9323 41.8374 11.2829 41.0147 11.0228C40.1386 10.7463 39.2804 10.9956 38.5235 11.2154C38.0729 11.3464 37.6485 11.4692 37.2919 11.4639C36.9158 11.4574 36.4616 11.3168 35.9811 11.1678C35.2061 10.9277 34.3268 10.6553 33.4899 10.9071C33.3956 10.9354 33.3077 10.9821 33.2315 11.0444C33.1552 11.1067 33.0919 11.1834 33.0453 11.2701C32.9986 11.3569 32.9695 11.452 32.9596 11.5499C32.9497 11.6479 32.9592 11.7469 32.9876 11.8412C33.0159 11.9356 33.0626 12.0234 33.1249 12.0997C33.1872 12.176 33.2639 12.2392 33.3506 12.2859C33.4374 12.3325 33.5325 12.3616 33.6305 12.3715C33.7285 12.3814 33.8274 12.3719 33.9218 12.3436C34.3205 12.2238 34.9389 12.4153 35.5373 12.6007C36.097 12.7741 36.676 12.9534 37.2658 12.9632C37.8475 12.9747 38.4039 12.8117 38.942 12.6554C39.5481 12.4794 40.1204 12.3131 40.5636 12.4528C40.9786 12.5838 41.3769 13.0468 41.7985 13.5372L41.8382 13.5834C41.9025 13.6581 41.9808 13.7194 42.0687 13.7639C42.1567 13.8083 42.2525 13.8349 42.3507 13.8423C42.449 13.8497 42.5477 13.8377 42.6413 13.8069C42.7349 13.7761 42.8215 13.7272 42.8962 13.663C42.9709 13.5988 43.0322 13.5204 43.0766 13.4325C43.121 13.3446 43.1477 13.2487 43.1551 13.1505C43.1625 13.0523 43.1504 12.9535 43.1197 12.8599C43.0889 12.7664 43.04 12.6797 42.9757 12.6051L42.9357 12.5603Z" fill="#393939"/>
<path d="M16.9068 17.6818C17.0951 17.6177 17.2503 17.4815 17.3381 17.303C17.426 17.1245 17.4394 16.9185 17.3753 16.7301C17.3112 16.5418 17.175 16.3867 16.9965 16.2988C16.8181 16.2109 16.612 16.1976 16.4237 16.2616L16.3662 16.2813C15.5819 16.5476 14.7711 16.8233 14.2233 17.4894C13.6397 18.1993 13.5506 19.0881 13.4719 19.8724C13.4251 20.3393 13.3808 20.7803 13.2424 21.1076C13.0959 21.4543 12.7958 21.8229 12.4782 22.2133C11.9657 22.8429 11.3853 23.5565 11.3061 24.4266C11.2971 24.5247 11.3076 24.6236 11.3369 24.7177C11.3662 24.8117 11.4137 24.899 11.4768 24.9747C11.5398 25.0504 11.6172 25.1129 11.7044 25.1587C11.7916 25.2044 11.887 25.2326 11.9851 25.2415C12.0083 25.2436 12.0311 25.2448 12.0539 25.2448C12.2411 25.2447 12.4214 25.1747 12.5596 25.0484C12.6977 24.9222 12.7837 24.7489 12.8006 24.5625C12.8381 24.1481 13.2469 23.6458 13.6423 23.1599C14.0122 22.7053 14.3947 22.2349 14.6244 21.6918C14.8513 21.1555 14.9091 20.5793 14.9649 20.0219C15.0274 19.394 15.0873 18.8009 15.3826 18.442C15.6589 18.1059 16.2372 17.9094 16.8493 17.7013L16.9068 17.6818Z" fill="#393939"/>
<path d="M19.908 25.6213C19.7255 25.5423 19.519 25.539 19.3341 25.6122C19.1491 25.6854 19.0008 25.829 18.9218 26.0116C18.6903 26.5459 18.6276 27.1218 18.5671 27.6787C18.4988 28.3061 18.4344 28.8986 18.1364 29.2549C17.857 29.5887 17.277 29.7799 16.663 29.9833L16.6053 30.0024C16.5104 30.0322 16.4224 30.0806 16.3464 30.1447C16.2704 30.2088 16.2079 30.2874 16.1626 30.3759C16.1173 30.4644 16.09 30.5611 16.0823 30.6602C16.0746 30.7593 16.0868 30.859 16.118 30.9534C16.1492 31.0478 16.1989 31.1351 16.2641 31.2101C16.3294 31.2851 16.4089 31.3464 16.4981 31.3905C16.5872 31.4345 16.6842 31.4603 16.7835 31.4665C16.8827 31.4727 16.9822 31.459 17.0761 31.4264L17.1335 31.4076C17.92 31.1477 18.7335 30.8789 19.2869 30.2173C19.8764 29.5124 19.973 28.6244 20.0583 27.8409C20.109 27.3744 20.157 26.9338 20.2983 26.6076C20.3773 26.425 20.3806 26.2186 20.3074 26.0336C20.2342 25.8487 20.0905 25.7003 19.908 25.6213Z" fill="#393939"/>
<path d="M33.3205 20.6249C32.7863 20.3935 32.2105 20.3309 31.6535 20.2702C31.0263 20.202 30.4338 20.1376 30.0773 19.8394C29.7433 19.56 29.5523 18.9799 29.3489 18.3657L29.3299 18.3084C29.2996 18.2141 29.2509 18.1268 29.1867 18.0515C29.1225 17.9762 29.0439 17.9143 28.9557 17.8694C28.8674 17.8246 28.7712 17.7977 28.6724 17.7902C28.5737 17.7828 28.4745 17.7949 28.3805 17.826C28.2865 17.8571 28.1996 17.9065 28.1248 17.9713C28.05 18.0361 27.9887 18.1151 27.9446 18.2037C27.9005 18.2924 27.8743 18.3888 27.8677 18.4876C27.861 18.5864 27.874 18.6855 27.9058 18.7792L27.9245 18.8361C28.1844 19.6229 28.453 20.4361 29.1149 20.9899C29.8198 21.5796 30.7078 21.6762 31.4914 21.7615C31.9579 21.8122 32.3984 21.8601 32.7247 22.0013C32.9068 22.0783 33.112 22.0802 33.2956 22.0066C33.4791 21.933 33.6261 21.7899 33.7047 21.6084C33.7833 21.4269 33.787 21.2218 33.715 21.0376C33.6431 20.8534 33.5013 20.705 33.3205 20.6249Z" fill="#393939"/>
<path d="M56.9861 17.1754C56.895 16.5856 57.0047 15.8927 57.121 15.1594C57.3016 14.0182 57.5065 12.7247 56.9008 11.5987C56.3133 10.505 55.1482 9.89112 54.022 9.29762C53.295 8.91449 52.6083 8.55262 52.1395 8.09974C51.6913 7.66699 51.3408 7.02937 50.9697 6.35424C50.4026 5.32287 49.7598 4.15424 48.5947 3.54712C47.5011 2.97787 46.2216 3.07437 44.9841 3.16749C44.1401 3.23099 43.3427 3.29099 42.6522 3.14662C41.9617 3.00224 41.2552 2.62787 40.5073 2.23149C39.4108 1.65049 38.2796 1.04899 37.0471 1.13287C35.7363 1.22162 34.6791 2.03537 33.7462 2.75337C33.1357 3.22312 32.5587 3.66687 31.9752 3.88387C31.3642 4.11087 30.5901 4.16737 29.7706 4.22712C29.4015 4.25412 29.0288 4.28187 28.6616 4.32574C28.3677 4.24687 28.0691 4.16162 27.7782 4.07762C26.2428 3.63387 24.655 3.17499 23.16 3.59524C21.5662 4.04287 20.4975 5.28912 19.4642 6.49449C18.7933 7.27699 18.1595 8.01624 17.4365 8.47149C16.683 8.94574 15.6865 9.23112 14.6317 9.53324C13.0567 9.98424 11.429 10.4506 10.4243 11.6445C9.39359 12.8695 9.31484 14.4741 9.23859 16.026C9.18984 17.0197 9.14384 17.9585 8.85496 18.7274C8.57996 19.4589 8.00121 20.201 7.38809 20.9867C6.38884 22.2672 5.35571 23.5914 5.35571 25.2141C5.35571 26.8369 6.38884 28.161 7.38809 29.4415C8.00059 30.2272 8.58034 30.9694 8.85496 31.7009C9.14384 32.4696 9.18984 33.4084 9.23846 34.4021C9.31471 35.954 9.39346 37.5586 10.4243 38.7837C11.4288 39.9776 13.0571 40.444 14.6317 40.8949C15.6866 41.1971 16.683 41.4824 17.4365 41.9574C18.1595 42.4126 18.7932 43.1517 19.4642 43.9344C20.4976 45.1396 21.5661 46.386 23.16 46.8336C23.5732 46.9464 23.9999 47.0019 24.4282 46.9984C24.8991 46.9935 25.3685 46.9441 25.8301 46.8507L26.0085 55.8865C26.0264 57.1802 25.9628 58.4737 25.818 59.7594L25.7241 60.5893L25.7193 60.6736C25.7193 62.4692 27.9726 63.8758 30.8491 63.8758C33.7256 63.8758 35.979 62.4692 35.979 60.6736L35.6718 55.2273C35.6275 54.4424 35.613 53.6445 35.6292 52.8561L35.7551 46.8295C36.2521 46.9369 36.7586 46.994 37.267 47C37.6964 47.0032 38.1242 46.9472 38.5383 46.8336C40.1321 46.3861 41.2008 45.1397 42.2341 43.9344C42.905 43.1519 43.5388 42.4126 44.2618 41.9575C45.0153 41.4825 46.0118 41.1978 47.0666 40.895C48.6416 40.444 50.2693 39.9776 51.274 38.7839C52.3048 37.5589 52.3835 35.9541 52.4597 34.4024C52.504 33.4971 52.5485 32.6392 52.7738 31.9122C53.6661 31.1186 53.9792 29.9232 54.2561 28.8622C54.4436 28.1436 54.6206 27.4649 54.9403 26.9611C55.2441 26.4822 55.7807 26.0284 56.3488 25.5477C57.2705 24.7681 58.3152 23.8845 58.5805 22.6156C58.8457 21.3467 58.243 20.1187 57.7106 19.0352C57.3825 18.367 57.0726 17.736 56.9861 17.1754ZM34.3747 41.071L34.1293 52.8248C34.1125 53.6518 34.1276 54.4885 34.1742 55.3123L34.4786 60.6909C34.4568 61.4899 32.9118 62.3759 30.849 62.3759C28.8007 62.3759 27.2631 61.5025 27.2202 60.7079L27.3077 59.928C27.4599 58.578 27.5267 57.2198 27.5077 55.8614L27.2917 44.9004C27.2762 44.0947 27.0868 43.3018 26.7367 42.576C26.3866 41.8502 25.8839 41.2085 25.263 40.6949L19.4926 35.9189C20.1426 35.648 20.785 35.3075 21.2936 34.7845L25.6436 36.8629C25.8648 36.9685 26.1092 37.0162 26.3538 37.0015C26.5985 36.9867 26.8354 36.91 27.0423 36.7785C27.2491 36.6469 27.4191 36.465 27.5363 36.2497C27.6535 36.0344 27.7141 35.7929 27.7122 35.5477L27.6708 32.6221C27.8303 32.58 27.9866 32.5346 28.1386 32.4907C28.588 32.3601 29.0165 32.239 29.3675 32.2424L30.1617 35.4799C30.2261 35.7496 30.3675 35.9949 30.5687 36.1857C30.7699 36.3766 31.0223 36.5048 31.2951 36.5549C31.3867 36.5725 31.4799 36.5814 31.5732 36.5814C31.8031 36.5815 32.0296 36.5262 32.2334 36.4201C32.4373 36.314 32.6126 36.1602 32.7443 35.9719L37.7983 28.8552C38.2144 28.7278 38.6447 28.6522 39.0793 28.6302C39.0947 28.6302 39.1107 28.6314 39.1261 28.6314L36.2582 33.9379C35.0751 36.1331 34.4295 38.5778 34.3747 41.071ZM31.0083 32.6379C31.4758 32.7938 31.9632 32.8818 32.4557 32.8991C32.6919 32.9006 32.927 32.8684 33.1541 32.8034L31.5896 35.0064L31.0083 32.6379ZM57.1121 22.3079C56.9523 23.0717 56.1886 23.7177 55.38 24.4017C54.7508 24.934 54.1002 25.4844 53.6736 26.1566C53.2281 26.8586 53.0128 27.6844 52.8046 28.4829C52.5502 29.4579 52.3102 30.3785 51.7021 30.8555C51.0852 31.3395 50.0521 31.4149 48.9591 31.4946C48.0708 31.5595 47.1525 31.6265 46.3412 31.9279C46.1547 31.9971 46.0034 32.1376 45.9206 32.3185C45.8377 32.4993 45.8301 32.7057 45.8993 32.8921C45.9686 33.0786 46.1091 33.2299 46.2899 33.3128C46.4708 33.3956 46.6771 33.4033 46.8636 33.334C47.4746 33.1069 48.2487 33.0504 49.0682 32.9906C49.744 32.9591 50.4162 32.8745 51.0787 32.7374C51.0136 33.2646 50.9872 33.8011 50.9613 34.3288C50.8943 35.6921 50.8312 36.9799 50.1261 37.8179C49.4162 38.6615 48.0742 39.0459 46.6535 39.4529C45.5441 39.7706 44.3968 40.0991 43.4626 40.6874C42.5476 41.2634 41.8092 42.1249 41.0952 42.9572C40.1662 44.0407 39.289 45.064 38.1327 45.3887C37.4186 45.5887 36.6 45.488 35.7868 45.3013L35.8743 41.1022C35.9239 38.8472 36.5077 36.636 37.5778 34.6504L40.6772 28.9146C40.7935 28.9475 40.9105 28.9812 41.0293 29.0157C42.1101 29.3297 43.335 29.6855 44.5377 29.3062C45.6662 28.9504 46.4658 28.0205 47.2391 27.1214C47.7626 26.5126 48.257 25.9377 48.8141 25.573C48.8972 25.5194 48.9689 25.4499 49.0251 25.3685C49.0813 25.2871 49.1208 25.1953 49.1413 25.0986C49.1619 25.0018 49.1631 24.9019 49.1449 24.8047C49.1268 24.7075 49.0895 24.6148 49.0354 24.532C48.9812 24.4493 48.9112 24.378 48.8294 24.3224C48.7476 24.2668 48.6556 24.2279 48.5588 24.208C48.4619 24.1881 48.362 24.1875 48.2649 24.2063C48.1678 24.2252 48.0754 24.263 47.993 24.3177C47.2577 24.7986 46.6697 25.4822 46.1013 26.1434C45.4357 26.9172 44.8071 27.6482 44.086 27.8756C43.3167 28.1184 42.4085 27.8545 41.4473 27.5756C40.67 27.3497 39.868 27.1152 39.0521 27.1304C38.2235 27.1447 37.3838 27.4054 36.5718 27.6564C35.5807 27.9632 34.6447 28.2531 33.9408 28.0416C33.7503 27.9844 33.5449 28.0051 33.3697 28.0993C33.1945 28.1935 33.0639 28.3534 33.0066 28.5439C32.9494 28.7344 32.9701 28.9399 33.0643 29.1151C33.1585 29.2903 33.3185 29.4209 33.509 29.4781C33.824 29.5708 34.151 29.6167 34.4793 29.6141C34.8219 29.6102 35.1633 29.5725 35.4985 29.5016L33.703 32.0299C33.6957 31.9174 33.6631 31.808 33.6076 31.7099C33.5521 31.6118 33.4751 31.5275 33.3825 31.4633C33.2898 31.3991 33.1838 31.3567 33.0724 31.3392C32.9611 31.3218 32.8472 31.3297 32.7393 31.3625C32.3405 31.4824 31.722 31.2906 31.1237 31.1052C30.564 30.9319 29.985 30.7526 29.3952 30.7427C28.8145 30.7325 28.2571 30.8941 27.719 31.0504C27.1127 31.2264 26.5401 31.3925 26.0973 31.253C25.6823 31.1221 25.2841 30.659 24.8625 30.1687L24.8227 30.1225C24.7585 30.0478 24.6801 29.9865 24.5922 29.9421C24.5043 29.8977 24.4085 29.871 24.3102 29.8636C24.212 29.8562 24.1133 29.8683 24.0197 29.899C23.9261 29.9298 23.8395 29.9787 23.7648 30.0429C23.6901 30.1072 23.6288 30.1855 23.5844 30.2734C23.5399 30.3614 23.5133 30.4572 23.5059 30.5554C23.4985 30.6537 23.5105 30.7524 23.5413 30.846C23.5721 30.9396 23.621 31.0262 23.6852 31.1009L23.7247 31.1466C24.2647 31.7746 24.8231 32.4241 25.6457 32.6835C25.8169 32.737 25.9931 32.7728 26.1716 32.7902L26.2091 35.4671L22.0825 33.4975C22.3563 32.7361 22.4233 31.8889 22.4878 31.061C22.5013 30.8881 22.5148 30.7149 22.5302 30.5422C22.5404 30.4435 22.5308 30.3436 22.5021 30.2486C22.4734 30.1535 22.426 30.0651 22.3629 29.9884C22.2997 29.9118 22.2219 29.8485 22.1341 29.8022C22.0462 29.7558 21.9501 29.7274 21.8512 29.7185C21.7522 29.7096 21.6525 29.7205 21.5579 29.7505C21.4632 29.7804 21.3754 29.8289 21.2996 29.8931C21.2238 29.9572 21.1615 30.0358 21.1163 30.1243C21.0711 30.2127 21.0439 30.3092 21.0363 30.4082C21.0202 30.5866 21.0063 30.7657 20.9923 30.9445C20.913 31.9624 20.8381 32.9236 20.391 33.5334C19.9137 34.184 19.0256 34.5084 18.0851 34.851C17.3246 35.1284 16.5381 35.4152 15.89 35.9079C15.811 35.9673 15.7446 36.0417 15.6945 36.1269C15.6444 36.212 15.6116 36.3062 15.598 36.4041C15.5844 36.502 15.5903 36.6015 15.6153 36.6971C15.6403 36.7927 15.684 36.8824 15.7438 36.9611C15.8036 37.0397 15.8783 37.1058 15.9637 37.1555C16.0492 37.2052 16.1435 37.2375 16.2415 37.2506C16.3394 37.2637 16.439 37.2573 16.5344 37.2318C16.6299 37.2063 16.7194 37.1622 16.7977 37.102C17.1315 36.8655 17.495 36.6738 17.8787 36.5319L24.306 41.8504C24.7608 42.2265 25.129 42.6963 25.3855 43.2279C25.642 43.7594 25.7806 44.3401 25.792 44.9301L25.7998 45.3257C25.0498 45.4901 24.2536 45.5824 23.5655 45.3891C22.4091 45.0641 21.5317 44.041 20.603 42.9576C19.8887 42.1254 19.1505 41.2637 18.2355 40.6879C17.3012 40.1004 16.1541 39.7711 15.0446 39.4534C13.6237 39.0465 12.2821 38.6621 11.5718 37.8184C10.8667 36.9809 10.8036 35.6926 10.7367 34.3291C10.6845 33.2639 10.6303 32.1624 10.2591 31.1739C9.90384 30.2279 9.22609 29.3592 8.57059 28.5192C7.68859 27.389 6.85559 26.3214 6.85559 25.2146C6.85559 24.1079 7.68859 23.0402 8.57059 21.91C9.22609 21.07 9.90384 20.2014 10.2591 19.2552C10.6303 18.2669 10.6841 17.1652 10.7367 16.1C10.8036 14.7366 10.8668 13.4487 11.5718 12.6107C12.2818 11.767 13.6237 11.3827 15.0447 10.9759C16.1541 10.6581 17.3012 10.3295 18.2355 9.74137C19.1505 9.16524 19.8887 8.30387 20.6028 7.47137C21.5317 6.38799 22.4092 5.36462 23.5653 5.03987C24.3403 4.82187 25.2366 4.95549 26.1942 5.19649C25.2013 5.98662 24.8725 7.24524 24.5825 8.35687C24.395 9.07549 24.218 9.75412 23.8983 10.2581C23.5945 10.7369 23.0578 11.1907 22.4897 11.6714C21.5681 12.451 20.5235 13.3345 20.2581 14.6035C19.9927 15.8725 20.5956 17.1004 21.1281 18.1839C21.4561 18.8519 21.7656 19.4827 21.8531 20.0431C21.9442 20.633 21.8345 21.3257 21.7182 22.0592C21.5376 23.2004 21.3327 24.4937 21.9382 25.6199C22.5265 26.7136 23.6911 27.3274 24.8172 27.9209C25.5442 28.304 26.2308 28.6659 26.6997 29.1186C26.8428 29.2568 27.0349 29.3325 27.2338 29.329C27.4327 29.3255 27.622 29.2432 27.7602 29.1001C27.8984 28.957 27.9741 28.7649 27.9706 28.566C27.9671 28.3672 27.8848 28.1778 27.7417 28.0396C27.1191 27.4385 26.3042 27.0091 25.5167 26.5939C24.5468 26.0827 23.6308 25.6 23.2593 24.9095C22.8935 24.2289 23.0423 23.289 23.2 22.2939C23.3291 21.4787 23.4625 20.636 23.3357 19.8142C23.2141 19.0267 22.8385 18.2624 22.4753 17.5227C22.0085 16.5727 21.5675 15.6742 21.7272 14.9102C21.887 14.1462 22.6505 13.5004 23.4586 12.8164C24.0877 12.2842 24.7383 11.7339 25.165 11.0615C25.6105 10.3595 25.8258 9.53374 26.0341 8.73512C26.2883 7.76012 26.5285 6.83949 27.1365 6.36249C27.7535 5.87862 28.7865 5.80324 29.8796 5.72349C30.7678 5.65862 31.6862 5.59162 32.4976 5.29024C33.2941 4.99424 33.9888 4.45949 34.6608 3.94237C35.4991 3.29724 36.291 2.68774 37.1483 2.62987C37.9532 2.57524 38.8517 3.05249 39.8046 3.55737C40.6117 3.98512 41.4463 4.42762 42.345 4.61537C43.2436 4.80312 44.1851 4.73237 45.0963 4.66374C46.1713 4.58262 47.1873 4.50624 47.9017 4.87824C48.6642 5.27499 49.1453 6.15049 49.655 7.07749C50.0636 7.82049 50.486 8.58899 51.0972 9.17924C51.7197 9.78049 52.5347 10.2099 53.3222 10.6251C54.292 11.1362 55.2081 11.619 55.5795 12.3096C55.9453 12.9902 55.7966 13.9301 55.639 14.9251C55.5098 15.7402 55.3765 16.5831 55.5032 17.4047C55.6247 18.1922 56.0003 18.9566 56.3636 19.6964C56.8308 20.6466 57.2717 21.5445 57.1121 22.3082V22.3079Z" fill="#393939"/>
</svg>
